<svg xmlns="http://www.w3.org/2000/svg" fill="none" viewBox="-4 -4 24 24" role="presentation" class="css-2l1v34">
  <path stroke="currentcolor" stroke-linejoin="round" stroke-width="1.5" d="M12 9v6m-3-3h6M3 14.25h2c.69 0 1.25-.56 1.25-1.25v-2c0-.69-.56-1.25-1.25-1.25H3c-.69 0-1.25.56-1.25 1.25v2c0 .69.56 1.25 1.25 1.25Zm8-8h2c.69 0 1.25-.56 1.25-1.25V3c0-.69-.56-1.25-1.25-1.25h-2c-.69 0-1.25.56-1.25 1.25v2c0 .69.56 1.25 1.25 1.25Zm-8 0h2c.69 0 1.25-.56 1.25-1.25V3c0-.69-.56-1.25-1.25-1.25H3c-.69 0-1.25.56-1.25 1.25v2c0 .69.56 1.25 1.25 1.25Z"></path>
</svg>
