<svg xmlns="http://www.w3.org/2000/svg" fill="none" viewBox="0 0 16 16" role="presentation" class="css-1rmmprl">
  <path stroke="currentcolor" stroke-linejoin="round" stroke-width="1.5" d="M1.75 3c0-.69.56-1.25 1.25-1.25h2c.69 0 1.25.56 1.25 1.25v2c0 .69-.56 1.25-1.25 1.25H3c-.69 0-1.25-.56-1.25-1.25zm8 0c0-.69.56-1.25 1.25-1.25h2c.69 0 1.25.56 1.25 1.25v2c0 .69-.56 1.25-1.25 1.25h-2c-.69 0-1.25-.56-1.25-1.25zm-8 8c0-.69.56-1.25 1.25-1.25h2c.69 0 1.25.56 1.25 1.25v2c0 .69-.56 1.25-1.25 1.25H3c-.69 0-1.25-.56-1.25-1.25zm8 0c0-.69.56-1.25 1.25-1.25h2c.69 0 1.25.56 1.25 1.25v2c0 .69-.56 1.25-1.25 1.25h-2c-.69 0-1.25-.56-1.25-1.25z"></path>
</svg>
