<svg width="275" height="275" viewBox="0 0 275 275" fill="none" xmlns="http://www.w3.org/2000/svg">
<path d="M185.8 91.8398C183.73 87.8698 181.19 83.9198 178.16 79.9998C175.09 76.0298 171.85 72.5298 168.49 69.4898C148.48 51.4098 123.89 49.7498 100.86 62.2398C96.93 64.3698 93.05 66.9098 89.24 69.8498C85.27 72.9198 81.7 76.1798 78.54 79.5898C60.71 98.8298 56.14 123 68.5 146.8C70.59 150.82 73.16 154.83 76.23 158.81C79.26 162.73 82.45 166.18 85.77 169.18C105.65 187.13 130.22 188.8 153.36 176.36C157.46 174.16 161.51 171.53 165.48 168.46C169.29 165.52 172.72 162.39 175.77 159.13C193.68 139.96 198.25 115.7 185.78 91.8398H185.8Z" fill="white"></path>
<path d="M123.44 191.28C108.24 191.28 93.7 185.56 81.19 174.27C77.54 170.97 74.05 167.18 70.82 163.01C67.55 158.78 64.72 154.39 62.43 149.97C49.09 124.3 53.13 96.9499 73.52 74.9399C76.97 71.2199 80.85 67.6799 85.05 64.4299C89.1 61.2999 93.32 58.5299 97.59 56.2099C123.97 41.8999 151.49 44.8899 173.08 64.3999C176.77 67.7399 180.3 71.5699 183.58 75.7999C186.81 79.9699 189.6 84.2999 191.88 88.6599C205.36 114.45 201.32 141.84 180.8 163.8C177.49 167.35 173.75 170.74 169.69 173.87C165.48 177.12 161.08 179.99 156.62 182.39C145.57 188.33 134.33 191.27 123.44 191.27V191.28ZM130.69 60.9799C122.04 60.9799 113.08 63.3899 104.12 68.2599C100.5 70.2299 96.9 72.5899 93.42 75.2699C89.81 78.0599 86.49 81.0799 83.56 84.2499C67.1 102.02 63.91 123.11 74.58 143.65C76.5 147.34 78.88 151.04 81.66 154.62C84.39 158.15 87.32 161.34 90.38 164.1C107.54 179.6 128.76 181.81 150.14 170.33C153.94 168.29 157.7 165.84 161.31 163.04C164.79 160.35 167.97 157.46 170.79 154.45C187.34 136.74 190.51 115.63 179.74 95.0099C177.84 91.3699 175.48 87.7199 172.75 84.1899C169.97 80.5999 167 77.3599 163.91 74.5699C153.91 65.5399 142.59 60.9799 130.71 60.9799H130.69Z" fill="#DDDEE1"></path>
<path d="M179.96 171C176.42 166.07 172.62 166.1 168.91 168.97C165.43 171.66 164.5 175.3 168.21 180.09L172.45 185.57L184.2 176.48L179.96 171Z" fill="#DDDEE1"></path>
<path d="M187.155 174.199L169.513 187.839L202.665 230.717L220.307 217.077L187.155 174.199Z" fill="#DDDEE1"></path>
<path d="M184.32 176.391L172.35 185.646L183.592 200.186L195.562 190.932L184.32 176.391Z" fill="#B7B9BE"></path>
<path d="M109.07 107.79C109.07 98.2498 116.81 90.5098 126.35 90.5098C129.53 90.5098 132.59 91.3698 135.26 92.8698C145.34 98.5298 145.71 113.31 135.98 119.54C135.69 119.73 135.39 119.91 135.08 120.07C130.77 122.42 127.97 128.5 128.25 133.39C128.25 133.5 128.25 134.04 128.25 134.15" stroke="#DDDEE1" stroke-width="10" stroke-miterlimit="10"></path>
<path d="M133.05 150.75C133.1 150.46 133.13 150.14 133.13 149.81C133.13 149.48 133.1 149.16 133.05 148.86C132.73 147.09 131.5 145.99 129.77 145.71C129.48 145.66 129.17 145.64 128.84 145.64C128.51 145.64 128.18 145.67 127.88 145.72C126.15 146.01 124.92 147.1 124.6 148.86C124.55 149.16 124.52 149.48 124.52 149.81C124.52 150.14 124.55 150.45 124.6 150.75C124.92 152.51 126.15 153.61 127.88 153.89C128.19 153.94 128.51 153.97 128.84 153.97C129.17 153.97 129.47 153.95 129.77 153.9C131.5 153.62 132.74 152.52 133.05 150.75Z" stroke="#DDDEE1" stroke-width="8" stroke-miterlimit="10"></path>
</svg>
