<svg viewBox="0 0 246 232" fill="none" xmlns="http://www.w3.org/2000/svg" class="_1bsb1lit _19pk1wug _2hwx1wug _otyr1wug _18u01wug"><g clip-path="url(#activity_0_clip)"><g opacity="0.5"><path opacity="0.5" d="M118.4 215.9C118.4 215.476 118.569 215.069 118.869 214.769C119.169 214.469 119.576 214.3 120 214.3C120.407 214.325 120.789 214.505 121.067 214.803C121.346 215.1 121.501 215.492 121.5 215.9C121.501 216.308 121.346 216.7 121.067 216.997C120.789 217.295 120.407 217.475 120 217.5C119.576 217.5 119.169 217.331 118.869 217.031C118.569 216.731 118.4 216.324 118.4 215.9ZM110.4 217.1C109.985 217.051 109.602 216.85 109.325 216.537C109.049 216.223 108.897 215.818 108.9 215.4C108.95 214.967 109.165 214.57 109.5 214.29C109.835 214.011 110.265 213.871 110.7 213.9C111.107 213.95 111.479 214.155 111.739 214.471C112 214.787 112.129 215.191 112.1 215.6C112.075 216.007 111.895 216.389 111.597 216.667C111.3 216.946 110.908 217.101 110.5 217.1H110.4ZM127.8 215.6C127.786 215.39 127.815 215.179 127.883 214.98C127.951 214.78 128.058 214.596 128.197 214.438C128.336 214.281 128.506 214.152 128.695 214.059C128.884 213.967 129.09 213.913 129.3 213.9C129.709 213.871 130.113 214.001 130.429 214.261C130.746 214.521 130.95 214.893 131 215.3C131.029 215.735 130.889 216.165 130.61 216.5C130.33 216.835 129.933 217.05 129.5 217.1H129.4C128.992 217.101 128.6 216.946 128.303 216.667C128.005 216.389 127.826 216.007 127.8 215.6ZM100.9 215.8C100.688 215.764 100.486 215.686 100.305 215.57C100.124 215.454 99.968 215.303 99.8467 215.126C99.7254 214.949 99.641 214.749 99.5986 214.538C99.5563 214.327 99.5567 214.11 99.6 213.9C99.6357 213.701 99.7111 213.512 99.8219 213.343C99.9326 213.174 100.076 213.029 100.244 212.917C100.413 212.805 100.602 212.728 100.8 212.69C100.999 212.653 101.203 212.656 101.4 212.7C101.608 212.723 101.808 212.79 101.989 212.895C102.169 213.001 102.326 213.143 102.448 213.312C102.571 213.482 102.656 213.675 102.7 213.88C102.743 214.084 102.743 214.295 102.7 214.5C102.65 214.88 102.456 215.227 102.159 215.468C101.861 215.71 101.482 215.829 101.1 215.8H100.9ZM137.2 214.5C137.139 214.078 137.239 213.648 137.479 213.296C137.72 212.945 138.085 212.696 138.5 212.6C138.91 212.542 139.327 212.645 139.662 212.887C139.998 213.129 140.227 213.493 140.3 213.9C140.344 214.097 140.347 214.301 140.31 214.5C140.272 214.698 140.195 214.887 140.083 215.056C139.971 215.224 139.826 215.367 139.657 215.478C139.489 215.589 139.299 215.664 139.1 215.7H138.8C138.441 215.695 138.092 215.576 137.805 215.36C137.517 215.145 137.306 214.843 137.2 214.5ZM91.5 213.6C91.1012 213.463 90.7677 213.182 90.5645 212.812C90.3612 212.442 90.3026 212.01 90.4 211.6C90.5375 211.201 90.8183 210.868 91.188 210.664C91.5576 210.461 91.9896 210.403 92.4 210.5C92.7863 210.655 93.107 210.939 93.3076 211.303C93.5081 211.668 93.5761 212.091 93.5 212.5C93.3908 212.833 93.1751 213.122 92.886 213.32C92.5968 213.519 92.2504 213.617 91.9 213.6H91.5ZM146.5 212.5C146.373 212.102 146.406 211.67 146.593 211.296C146.78 210.923 147.105 210.637 147.5 210.5C147.91 210.403 148.342 210.461 148.712 210.664C149.082 210.868 149.363 211.201 149.5 211.6C149.594 211.997 149.532 212.415 149.327 212.768C149.123 213.122 148.791 213.383 148.4 213.5H148C147.675 213.518 147.354 213.431 147.083 213.25C146.812 213.07 146.608 212.807 146.5 212.5ZM82.4 210.5C82.0235 210.344 81.7207 210.05 81.5534 209.678C81.3862 209.307 81.3671 208.885 81.5 208.5C81.656 208.123 81.9499 207.821 82.3216 207.653C82.6932 207.486 83.1147 207.467 83.5 207.6C83.6947 207.666 83.8737 207.772 84.0259 207.91C84.1781 208.049 84.3002 208.217 84.3846 208.404C84.469 208.592 84.5139 208.795 84.5166 209.001C84.5192 209.206 84.4796 209.41 84.4 209.6C84.3113 209.899 84.1253 210.159 83.8718 210.34C83.6182 210.522 83.3114 210.613 83 210.6H82.4V210.5ZM155.5 209.6C155.367 209.215 155.386 208.793 155.553 208.422C155.721 208.05 156.023 207.756 156.4 207.6C156.587 207.503 156.794 207.45 157.005 207.444C157.216 207.438 157.425 207.48 157.617 207.567C157.81 207.654 157.98 207.782 158.115 207.944C158.251 208.106 158.348 208.296 158.4 208.5C158.533 208.885 158.514 209.307 158.347 209.678C158.179 210.05 157.877 210.344 157.5 210.5H156.9C156.604 210.505 156.313 210.422 156.064 210.262C155.815 210.102 155.618 209.871 155.5 209.6ZM73.6 206.7C73.4065 206.605 73.2342 206.472 73.0935 206.308C72.9527 206.145 72.8465 205.955 72.7811 205.749C72.7157 205.544 72.6926 205.327 72.713 205.112C72.7334 204.898 72.797 204.689 72.9 204.5C73.0924 204.135 73.4182 203.859 73.8094 203.728C74.2007 203.598 74.6272 203.624 75 203.8C75.3649 203.992 75.6414 204.318 75.7718 204.709C75.9022 205.101 75.8765 205.527 75.7 205.9C75.5816 206.171 75.3854 206.402 75.1363 206.562C74.8872 206.722 74.5962 206.805 74.3 206.8H73.6V206.7ZM164.2 205.9C164.099 205.718 164.036 205.517 164.017 205.31C163.998 205.102 164.022 204.893 164.087 204.696C164.153 204.498 164.26 204.317 164.399 204.162C164.539 204.008 164.71 203.885 164.9 203.8C165.082 203.699 165.283 203.636 165.49 203.617C165.698 203.598 165.907 203.622 166.104 203.687C166.302 203.753 166.483 203.86 166.638 203.999C166.792 204.139 166.915 204.31 167 204.5C167.101 204.682 167.164 204.883 167.183 205.09C167.202 205.298 167.178 205.507 167.113 205.704C167.047 205.902 166.94 206.083 166.801 206.238C166.661 206.392 166.49 206.515 166.3 206.6L165.6 206.8C165.304 206.805 165.013 206.722 164.764 206.562C164.515 206.402 164.318 206.171 164.2 205.9ZM65.2 202C64.843 201.774 64.59 201.415 64.4963 201.003C64.4026 200.591 64.4758 200.158 64.7 199.8C64.9263 199.443 65.2847 199.19 65.6969 199.096C66.1091 199.003 66.5416 199.076 66.9 199.3C67.2379 199.542 67.4754 199.9 67.5676 200.305C67.6597 200.71 67.6001 201.136 67.4 201.5C67.2537 201.734 67.0456 201.924 66.7986 202.047C66.5515 202.171 66.2752 202.224 66 202.2L65.2 202ZM172.5 201.4C172.276 201.042 172.203 200.609 172.296 200.197C172.39 199.785 172.643 199.426 173 199.2C173.376 199.01 173.809 198.966 174.216 199.076C174.622 199.187 174.973 199.445 175.2 199.8C175.394 200.149 175.45 200.558 175.358 200.947C175.265 201.336 175.03 201.676 174.7 201.9L173.8 202.2C173.534 202.186 173.276 202.105 173.048 201.965C172.821 201.825 172.633 201.631 172.5 201.4ZM57.3 196.6C56.9681 196.326 56.7525 195.936 56.6968 195.509C56.6412 195.082 56.7495 194.65 57 194.3C57.2699 193.995 57.6405 193.796 58.0443 193.741C58.4481 193.686 58.8582 193.778 59.2 194C59.525 194.257 59.7378 194.629 59.7937 195.04C59.8497 195.45 59.7444 195.866 59.5 196.2C59.3621 196.419 59.1699 196.598 58.9421 196.721C58.7143 196.844 58.4587 196.905 58.2 196.9L57.3 196.6ZM180.4 196.2C180.156 195.866 180.05 195.45 180.106 195.04C180.162 194.629 180.375 194.257 180.7 194C180.86 193.866 181.047 193.766 181.248 193.708C181.448 193.65 181.659 193.635 181.866 193.663C182.074 193.691 182.273 193.763 182.451 193.872C182.629 193.982 182.782 194.128 182.9 194.3C183.144 194.634 183.25 195.05 183.194 195.461C183.138 195.871 182.925 196.243 182.6 196.5C182.306 196.702 181.957 196.807 181.6 196.8C181.368 196.793 181.141 196.735 180.934 196.632C180.727 196.528 180.545 196.381 180.4 196.2ZM49.9 190.4C49.6048 190.116 49.4299 189.729 49.4113 189.32C49.3927 188.911 49.5318 188.51 49.8 188.2C50.0842 187.905 50.4708 187.73 50.8801 187.711C51.2894 187.693 51.6903 187.832 52 188.1C52.1581 188.233 52.2868 188.398 52.3782 188.584C52.4695 188.769 52.5216 188.972 52.5309 189.178C52.5403 189.385 52.5069 189.591 52.4328 189.784C52.3586 189.977 52.2453 190.153 52.1 190.3C51.9708 190.466 51.8032 190.598 51.6116 190.686C51.42 190.773 51.2102 190.812 51 190.8C50.7992 190.81 50.5984 190.78 50.4094 190.712C50.2204 190.643 50.0472 190.537 49.9 190.4ZM187.7 190.2C187.453 189.881 187.327 189.485 187.346 189.082C187.364 188.679 187.525 188.295 187.8 188C188.126 187.725 188.544 187.583 188.97 187.601C189.396 187.62 189.799 187.798 190.1 188.1C190.368 188.41 190.507 188.811 190.489 189.22C190.47 189.629 190.295 190.016 190 190.3C189.713 190.604 189.318 190.784 188.9 190.8C188.67 190.787 188.445 190.727 188.238 190.623C188.032 190.52 187.849 190.376 187.7 190.2ZM43.1 183.6C42.8318 183.29 42.6927 182.889 42.7113 182.48C42.7299 182.071 42.9048 181.684 43.2 181.4C43.5098 181.132 43.9106 180.993 44.32 181.011C44.7293 181.03 45.1159 181.205 45.4 181.5C45.5453 181.647 45.6586 181.823 45.7327 182.016C45.8069 182.209 45.8403 182.415 45.831 182.622C45.8216 182.828 45.7695 183.031 45.6782 183.216C45.5868 183.402 45.4581 183.567 45.3 183.7C45.1766 183.848 45.0242 183.968 44.8521 184.054C44.6801 184.14 44.4921 184.19 44.3 184.2C44.0658 184.208 43.8331 184.158 43.6235 184.053C43.4138 183.948 43.2338 183.792 43.1 183.6ZM194.5 183.7C194.198 183.399 194.02 182.996 194.001 182.57C193.983 182.143 194.125 181.726 194.4 181.4C194.701 181.098 195.104 180.92 195.531 180.901C195.957 180.883 196.374 181.025 196.7 181.3C196.983 181.611 197.148 182.012 197.166 182.432C197.184 182.852 197.055 183.265 196.8 183.6C196.463 183.889 196.043 184.064 195.6 184.1C195.203 184.074 194.821 183.935 194.5 183.7ZM37 176.3C36.8634 176.131 36.7625 175.937 36.7035 175.728C36.6444 175.519 36.6284 175.301 36.6565 175.086C36.6845 174.87 36.7561 174.663 36.8667 174.477C36.9773 174.29 37.1248 174.128 37.3 174C37.6463 173.766 38.0704 173.677 38.4815 173.752C38.8926 173.827 39.2582 174.059 39.5 174.4C39.7444 174.734 39.8497 175.15 39.7937 175.561C39.7378 175.971 39.525 176.343 39.2 176.6C38.9064 176.802 38.5566 176.907 38.2 176.9C37.9658 176.908 37.7331 176.858 37.5235 176.753C37.3138 176.648 37.1338 176.492 37 176.3ZM200.7 176.5C200.375 176.243 200.162 175.871 200.106 175.461C200.05 175.05 200.156 174.634 200.4 174.3C200.518 174.128 200.672 173.982 200.85 173.872C201.028 173.763 201.226 173.691 201.434 173.663C201.641 173.635 201.852 173.65 202.052 173.708C202.253 173.766 202.44 173.866 202.6 174C202.925 174.257 203.138 174.629 203.194 175.04C203.25 175.45 203.144 175.866 202.9 176.2C202.745 176.394 202.547 176.549 202.321 176.654C202.095 176.758 201.848 176.808 201.6 176.8L200.7 176.5ZM31.5 168.3C31.3062 167.951 31.25 167.542 31.3425 167.153C31.435 166.764 31.6696 166.424 32 166.2C32.1729 166.075 32.3706 165.988 32.5798 165.945C32.7891 165.902 33.0051 165.904 33.2133 165.951C33.4216 165.999 33.6174 166.09 33.7876 166.219C33.9577 166.348 34.0983 166.512 34.2 166.7C34.4242 167.058 34.4975 167.491 34.4038 167.903C34.3101 168.315 34.0571 168.674 33.7 168.9L32.9 169.1C32.6167 169.103 32.3379 169.03 32.0919 168.889C31.8459 168.749 31.6417 168.545 31.5 168.3ZM206.2 168.8C205.845 168.573 205.587 168.222 205.476 167.816C205.366 167.409 205.41 166.976 205.6 166.6H205.7C205.791 166.415 205.922 166.252 206.083 166.123C206.244 165.995 206.432 165.903 206.632 165.855C206.833 165.808 207.042 165.805 207.243 165.847C207.445 165.889 207.635 165.976 207.8 166.1C207.985 166.191 208.148 166.322 208.277 166.483C208.405 166.644 208.497 166.832 208.545 167.032C208.592 167.233 208.595 167.442 208.553 167.643C208.511 167.845 208.424 168.035 208.3 168.2C208.167 168.431 207.979 168.625 207.752 168.765C207.525 168.905 207.266 168.986 207 169L206.2 168.8ZM26.8 160C26.6235 159.627 26.5978 159.201 26.7283 158.809C26.8587 158.418 27.1352 158.092 27.5 157.9C27.6895 157.797 27.8978 157.733 28.1125 157.713C28.3271 157.693 28.5437 157.716 28.7492 157.781C28.9547 157.846 29.1449 157.953 29.3083 158.093C29.4716 158.234 29.6049 158.406 29.7 158.6C29.8339 158.978 29.8378 159.39 29.711 159.77C29.5842 160.151 29.334 160.478 29 160.7H28.2C27.9277 160.704 27.6583 160.643 27.4147 160.521C27.171 160.399 26.9602 160.22 26.8 160ZM210.9 160.6C210.535 160.408 210.259 160.082 210.128 159.691C209.998 159.299 210.024 158.873 210.2 158.5C210.393 158.134 210.712 157.851 211.099 157.704C211.486 157.556 211.913 157.555 212.3 157.7C212.494 157.795 212.666 157.928 212.807 158.092C212.947 158.255 213.054 158.445 213.119 158.651C213.184 158.856 213.207 159.073 213.187 159.288C213.167 159.502 213.103 159.711 213 159.9C212.858 160.145 212.654 160.349 212.408 160.489C212.162 160.63 211.883 160.703 211.6 160.7H210.9V160.6ZM22.9 151.2C22.7624 150.801 22.7783 150.364 22.9447 149.976C23.111 149.588 23.4159 149.276 23.8 149.1C23.9968 149.019 24.2077 148.978 24.4204 148.98C24.6332 148.981 24.8435 149.025 25.039 149.109C25.2345 149.193 25.4114 149.315 25.5593 149.468C25.7071 149.621 25.8229 149.802 25.9 150C25.981 150.197 26.0218 150.408 26.0203 150.62C26.0187 150.833 25.9748 151.043 25.891 151.239C25.8072 151.435 25.6852 151.611 25.5322 151.759C25.3792 151.907 25.1983 152.023 25 152.1H24.4C24.0941 152.09 23.7958 152.002 23.5333 151.844C23.2709 151.687 23.0529 151.465 22.9 151.2ZM214.9 152C214.692 151.936 214.501 151.827 214.34 151.682C214.178 151.536 214.05 151.358 213.965 151.158C213.879 150.958 213.838 150.742 213.844 150.525C213.85 150.308 213.903 150.095 214 149.9C214.156 149.523 214.45 149.221 214.822 149.053C215.193 148.886 215.615 148.867 216 149C216.384 149.176 216.689 149.488 216.855 149.876C217.022 150.264 217.038 150.701 216.9 151.1C216.792 151.407 216.588 151.67 216.317 151.85C216.046 152.031 215.725 152.118 215.4 152.1H214.9V152ZM19.9 142.1C19.8232 141.897 19.7914 141.68 19.8067 141.463C19.822 141.247 19.884 141.036 19.9886 140.846C20.0932 140.656 20.2378 140.491 20.4124 140.362C20.587 140.233 20.7875 140.144 21 140.1C21.3973 140.006 21.8153 140.068 22.1685 140.273C22.5216 140.477 22.7834 140.809 22.9 141.2C22.9768 141.403 23.0087 141.62 22.9934 141.837C22.9781 142.053 22.916 142.264 22.8114 142.454C22.7069 142.644 22.5623 142.809 22.3877 142.938C22.213 143.067 22.0126 143.156 21.8 143.2H21.4C21.0627 143.212 20.7311 143.11 20.4589 142.911C20.1867 142.711 19.9898 142.425 19.9 142.1ZM218 143.1C217.614 142.945 217.293 142.661 217.092 142.297C216.892 141.932 216.824 141.509 216.9 141.1C217.037 140.701 217.318 140.368 217.688 140.164C218.058 139.961 218.49 139.903 218.9 140C219.295 140.137 219.621 140.423 219.807 140.796C219.994 141.17 220.028 141.602 219.9 142C219.81 142.325 219.613 142.611 219.341 142.811C219.069 143.01 218.737 143.112 218.4 143.1H218ZM17.7 132.7C17.6384 132.304 17.7275 131.9 17.9497 131.566C18.1719 131.233 18.511 130.995 18.9 130.9C19.1105 130.857 19.3275 130.856 19.5381 130.899C19.7487 130.941 19.9487 131.025 20.126 131.147C20.3033 131.268 20.4544 131.424 20.5702 131.605C20.686 131.786 20.7641 131.988 20.8 132.2C20.8584 132.61 20.7555 133.027 20.5131 133.362C20.2706 133.698 19.9075 133.926 19.5 134H19.2C18.8345 134.003 18.4804 133.873 18.2042 133.634C17.928 133.394 17.7487 133.062 17.7 132.7ZM220.3 133.9C219.885 133.804 219.52 133.555 219.279 133.204C219.039 132.852 218.939 132.422 219 132C219.095 131.59 219.348 131.235 219.704 131.01C220.059 130.786 220.489 130.71 220.9 130.8C221.099 130.836 221.288 130.911 221.457 131.022C221.626 131.133 221.771 131.276 221.883 131.444C221.995 131.613 222.072 131.802 222.11 132C222.147 132.199 222.144 132.403 222.1 132.6C222.051 132.962 221.872 133.294 221.596 133.534C221.32 133.773 220.965 133.903 220.6 133.9H220.3ZM16.4 123.2C16.3713 122.791 16.5005 122.387 16.761 122.071C17.0215 121.755 17.3934 121.55 17.8 121.5C18.2088 121.471 18.6129 121.601 18.9292 121.861C19.2455 122.121 19.4498 122.493 19.5 122.9C19.5312 123.32 19.4053 123.737 19.1466 124.07C18.8879 124.402 18.515 124.627 18.1 124.7H17.9C17.5022 124.7 17.1207 124.542 16.8394 124.261C16.5581 123.979 16.4 123.598 16.4 123.2ZM221.7 124.5C221.494 124.488 221.292 124.434 221.107 124.34C220.923 124.246 220.76 124.116 220.628 123.956C220.497 123.796 220.4 123.611 220.343 123.412C220.287 123.213 220.272 123.005 220.3 122.8C220.35 122.393 220.555 122.021 220.871 121.761C221.187 121.501 221.591 121.371 222 121.4C222.206 121.412 222.408 121.466 222.593 121.56C222.777 121.654 222.94 121.784 223.072 121.944C223.203 122.104 223.3 122.289 223.357 122.488C223.413 122.687 223.428 122.895 223.4 123.1C223.375 123.48 223.205 123.837 222.927 124.097C222.648 124.357 222.281 124.501 221.9 124.5H221.7ZM15.9 113.6C15.9255 113.193 16.1052 112.811 16.4026 112.533C16.6999 112.254 17.0924 112.099 17.5 112.1C17.9076 112.099 18.3001 112.254 18.5975 112.533C18.8948 112.811 19.0746 113.193 19.1 113.6C19.1 114.024 18.9315 114.431 18.6314 114.731C18.3313 115.031 17.9244 115.2 17.5 115.2C17.0757 115.2 16.6687 115.031 16.3687 114.731C16.0686 114.431 15.9 114.024 15.9 113.6ZM220.7 113.5C220.7 113.076 220.869 112.669 221.169 112.369C221.469 112.069 221.876 111.9 222.3 111.9C222.724 111.9 223.131 112.069 223.431 112.369C223.731 112.669 223.9 113.076 223.9 113.5C223.9 113.924 223.731 114.331 223.431 114.631C223.131 114.931 222.724 115.1 222.3 115.1C221.876 115.1 221.469 114.931 221.169 114.631C220.869 114.331 220.7 113.924 220.7 113.5ZM17.8 105.8C17.3847 105.751 17.002 105.55 16.7253 105.237C16.4485 104.923 16.2971 104.518 16.3 104.1C16.3128 103.89 16.3669 103.684 16.4593 103.495C16.5517 103.305 16.6806 103.136 16.8385 102.997C16.9965 102.858 17.1804 102.751 17.3797 102.683C17.579 102.615 17.7898 102.586 18 102.6C18.2103 102.613 18.416 102.667 18.6052 102.759C18.7945 102.852 18.9637 102.981 19.1031 103.138C19.2424 103.296 19.3492 103.48 19.4174 103.68C19.4855 103.879 19.5136 104.09 19.5 104.3C19.4746 104.707 19.2948 105.089 18.9975 105.367C18.7001 105.646 18.3076 105.801 17.9 105.8H17.8ZM220.3 104C220.272 103.795 220.287 103.587 220.343 103.388C220.4 103.189 220.497 103.004 220.628 102.844C220.76 102.684 220.923 102.554 221.107 102.46C221.292 102.366 221.494 102.312 221.7 102.3C221.905 102.272 222.113 102.287 222.312 102.343C222.511 102.4 222.696 102.497 222.856 102.628C223.016 102.76 223.146 102.923 223.24 103.107C223.334 103.292 223.388 103.494 223.4 103.7C223.428 103.905 223.413 104.113 223.357 104.312C223.3 104.511 223.203 104.696 223.072 104.856C222.94 105.016 222.777 105.146 222.593 105.24C222.408 105.334 222.206 105.388 222 105.4H221.9C221.703 105.414 221.505 105.388 221.318 105.325C221.131 105.262 220.958 105.162 220.809 105.032C220.66 104.902 220.539 104.744 220.452 104.567C220.364 104.39 220.313 104.197 220.3 104ZM18.9 96.4C18.4845 96.3041 18.1203 96.0555 17.8795 95.7035C17.6387 95.3516 17.5389 94.922 17.6 94.5C17.6955 94.0904 17.9483 93.7349 18.3039 93.5103C18.6595 93.2857 19.0892 93.2102 19.5 93.3C19.6989 93.3356 19.8885 93.4111 20.0575 93.5218C20.2265 93.6326 20.3713 93.7763 20.4834 93.9444C20.5955 94.1125 20.6724 94.3015 20.7097 94.5001C20.7469 94.6987 20.7436 94.9027 20.7 95.1C20.6513 95.4622 20.472 95.7942 20.1958 96.0336C19.9196 96.273 19.5655 96.4033 19.2 96.4H18.9ZM219 94.8C218.91 94.3891 218.986 93.9594 219.21 93.6039C219.435 93.2483 219.79 92.9954 220.2 92.9C220.622 92.8389 221.052 92.9386 221.404 93.1794C221.755 93.4202 222.004 93.7845 222.1 94.2C222.158 94.6099 222.055 95.0265 221.813 95.3622C221.571 95.6979 221.208 95.9265 220.8 96H220.5C220.149 96.0071 219.807 95.8909 219.533 95.6716C219.259 95.4523 219.07 95.1439 219 94.8ZM20.9 87.1C20.5089 86.9833 20.1772 86.7216 19.9727 86.3684C19.7683 86.0152 19.7065 85.5972 19.8 85.2C19.8575 84.9954 19.9551 84.8044 20.0872 84.6379C20.2193 84.4715 20.3832 84.333 20.5694 84.2306C20.7556 84.1282 20.9603 84.0639 21.1716 84.0415C21.3829 84.0191 21.5965 84.039 21.8 84.1C22.1911 84.2167 22.5228 84.4784 22.7273 84.8316C22.9318 85.1848 22.9936 85.6028 22.9 86C22.7944 86.3434 22.5826 86.6446 22.2952 86.8602C22.0077 87.0758 21.6593 87.1947 21.3 87.2H20.9V87.1ZM216.8 85.7C216.706 85.3027 216.768 84.8848 216.973 84.5316C217.177 84.1784 217.509 83.9167 217.9 83.8C218.298 83.6725 218.73 83.7058 219.104 83.8926C219.477 84.0795 219.763 84.4052 219.9 84.8C219.997 85.2104 219.939 85.6424 219.736 86.0121C219.532 86.3817 219.199 86.6625 218.8 86.8H218.4C218.05 86.8174 217.703 86.7192 217.414 86.5204C217.125 86.3217 216.909 86.0334 216.8 85.7ZM23.8 78.1C23.5956 78.0482 23.4055 77.951 23.244 77.8154C23.0824 77.6799 22.9536 77.5097 22.867 77.3174C22.7805 77.1251 22.7385 76.9157 22.7442 76.7049C22.7499 76.4941 22.8032 76.2873 22.9 76.1C23.056 75.7235 23.3499 75.4207 23.7216 75.2534C24.0932 75.0862 24.5147 75.0671 24.9 75.2C25.2766 75.356 25.5793 75.6499 25.7466 76.0215C25.9139 76.3932 25.933 76.8147 25.8 77.2C25.6922 77.5067 25.4876 77.7701 25.217 77.9505C24.9465 78.1308 24.6247 78.2184 24.3 78.2H23.8V78.1ZM213.9 76.9C213.819 76.7033 213.778 76.4923 213.78 76.2796C213.781 76.0669 213.825 75.8566 213.909 75.661C213.993 75.4655 214.115 75.2886 214.268 75.1408C214.421 74.9929 214.602 74.8771 214.8 74.8C215.185 74.6671 215.607 74.6862 215.978 74.8534C216.35 75.0207 216.644 75.3235 216.8 75.7C216.938 76.0993 216.922 76.5355 216.755 76.9237C216.589 77.3119 216.284 77.6243 215.9 77.8H215.3C215.004 77.805 214.713 77.7221 214.464 77.562C214.215 77.4018 214.018 77.1715 213.9 76.9ZM27.4 69.4C27.0352 69.2077 26.7587 68.8819 26.6283 68.4906C26.4978 68.0993 26.5235 67.6728 26.7 67.3C26.8924 66.9351 27.2182 66.6587 27.6094 66.5282C28.0007 66.3978 28.4272 66.4235 28.8 66.6C29.166 66.7928 29.4492 67.1124 29.5965 67.499C29.7438 67.8855 29.745 68.3126 29.6 68.7C29.4404 68.9592 29.2208 69.1763 28.9598 69.3329C28.6987 69.4895 28.4039 69.5811 28.1 69.6L27.4 69.4ZM210.1 68.4C209.999 68.2181 209.936 68.0171 209.917 67.8098C209.898 67.6024 209.922 67.3934 209.987 67.1958C210.053 66.9983 210.16 66.8166 210.299 66.6624C210.439 66.5082 210.61 66.3847 210.8 66.3C210.982 66.1987 211.183 66.1364 211.39 66.117C211.598 66.0976 211.807 66.1216 212.004 66.1874C212.202 66.2533 212.383 66.3595 212.538 66.4994C212.692 66.6393 212.815 66.8098 212.9 67C213.077 67.3728 213.102 67.7993 212.972 68.1906C212.841 68.5819 212.565 68.9077 212.2 69.1H211.5C211.226 69.113 210.954 69.0555 210.709 68.9329C210.463 68.8103 210.254 68.6268 210.1 68.4ZM31.9 61.1C31.543 60.8737 31.29 60.5153 31.1963 60.1031C31.1026 59.6909 31.1758 59.2584 31.4 58.9C31.5017 58.7122 31.6423 58.5482 31.8125 58.4191C31.9827 58.29 32.1784 58.1987 32.3867 58.1514C32.595 58.1041 32.811 58.1018 33.0202 58.1446C33.2295 58.1875 33.4271 58.2746 33.6 58.4C33.9305 58.6244 34.165 58.9644 34.2575 59.353C34.3501 59.7416 34.2939 60.1507 34.1 60.5C33.9584 60.7453 33.7541 60.9487 33.5082 61.0893C33.2622 61.2298 32.9833 61.3025 32.7 61.3L31.9 61.1ZM205.5 60.3C205.3 59.9356 205.24 59.5105 205.332 59.1051C205.425 58.6997 205.662 58.3421 206 58.1C206.173 57.9746 206.371 57.8875 206.58 57.8446C206.789 57.8018 207.005 57.8041 207.213 57.8514C207.422 57.8987 207.617 57.99 207.788 58.1191C207.958 58.2482 208.098 58.4122 208.2 58.6C208.424 58.9584 208.497 59.3909 208.404 59.8031C208.31 60.2153 208.057 60.5737 207.7 60.8L206.9 61C206.628 61.004 206.358 60.9425 206.115 60.8207C205.871 60.6989 205.66 60.5203 205.5 60.3ZM37.1 53.2C36.7751 52.9434 36.5622 52.5708 36.5063 52.1605C36.4504 51.7502 36.5556 51.3343 36.8 51C36.9184 50.8277 37.0715 50.682 37.2495 50.5724C37.4275 50.4627 37.6265 50.3915 37.8336 50.3632C38.0408 50.335 38.2516 50.3503 38.4524 50.4083C38.6533 50.4663 38.8398 50.5657 39 50.7C39.1723 50.8184 39.318 50.9715 39.4277 51.1495C39.5373 51.3275 39.6086 51.5265 39.6368 51.7336C39.6651 51.9408 39.6497 52.1515 39.5917 52.3524C39.5337 52.5533 39.4343 52.7398 39.3 52.9C39.1662 53.0925 38.9862 53.2483 38.7766 53.3531C38.5669 53.4579 38.3343 53.5084 38.1 53.5C37.7435 53.5074 37.3936 53.4024 37.1 53.2ZM200.2 52.6C199.978 52.2582 199.886 51.8481 199.941 51.4443C199.996 51.0404 200.195 50.6699 200.5 50.4C200.669 50.2634 200.863 50.1625 201.072 50.1034C201.281 50.0444 201.499 50.0284 201.714 50.0564C201.93 50.0845 202.137 50.156 202.323 50.2667C202.51 50.3773 202.672 50.5247 202.8 50.7C203.022 51.0418 203.114 51.4519 203.059 51.8557C203.004 52.2596 202.805 52.6301 202.5 52.9C202.201 53.0914 201.855 53.1953 201.5 53.2C201.254 53.1942 201.011 53.138 200.788 53.0348C200.564 52.9316 200.364 52.7836 200.2 52.6ZM43.1 45.8C42.7903 45.5293 42.5967 45.1497 42.5594 44.7401C42.5222 44.3304 42.6442 43.9221 42.9 43.6C43.0424 43.4391 43.2157 43.3085 43.4096 43.216C43.6036 43.1236 43.8141 43.0711 44.0288 43.0618C44.2434 43.0524 44.4578 43.0864 44.659 43.1617C44.8602 43.237 45.0442 43.3521 45.2 43.5C45.4952 43.7842 45.6701 44.1707 45.6888 44.5801C45.7074 44.9894 45.5682 45.3902 45.3 45.7C44.9763 46.0103 44.5483 46.1886 44.1 46.2C43.9144 46.2087 43.7292 46.1774 43.5567 46.1084C43.3842 46.0394 43.2284 45.9343 43.1 45.8ZM194.3 45.4C194.155 45.2528 194.041 45.0772 193.967 44.8841C193.893 44.691 193.86 44.4847 193.869 44.2781C193.878 44.0715 193.93 43.8691 194.022 43.6836C194.113 43.498 194.242 43.3334 194.4 43.2C194.71 42.9318 195.111 42.7927 195.52 42.8113C195.929 42.8299 196.316 43.0048 196.6 43.3C196.868 43.6098 197.007 44.0106 196.989 44.4199C196.97 44.8293 196.795 45.2158 196.5 45.5C196.353 45.637 196.18 45.743 195.991 45.8117C195.802 45.8804 195.601 45.9105 195.4 45.9C195.19 45.9119 194.98 45.8727 194.788 45.7856C194.597 45.6985 194.429 45.5662 194.3 45.4ZM49.6 39C49.3318 38.6902 49.1927 38.2894 49.2113 37.8801C49.2299 37.4707 49.4048 37.0842 49.7 36.8C49.8558 36.6521 50.0398 36.537 50.2411 36.4617C50.4423 36.3864 50.6566 36.3524 50.8713 36.3618C51.0859 36.3711 51.2965 36.4236 51.4904 36.516C51.6843 36.6085 51.8577 36.7391 52 36.9C52.2471 37.2189 52.3727 37.6153 52.3544 38.0184C52.3361 38.4214 52.175 38.8048 51.9 39.1C51.7528 39.237 51.5796 39.343 51.3907 39.4117C51.2017 39.4804 51.0008 39.5105 50.8 39.5C50.3517 39.4886 49.9238 39.3103 49.6 39ZM187.7 38.9C187.539 38.7576 187.409 38.5843 187.316 38.3904C187.224 38.1964 187.171 37.9859 187.162 37.7712C187.152 37.5566 187.186 37.3423 187.262 37.141C187.337 36.9398 187.452 36.7558 187.6 36.6C187.884 36.3048 188.271 36.1299 188.68 36.1113C189.089 36.0927 189.49 36.2318 189.8 36.5C190.102 36.801 190.28 37.2045 190.299 37.6305C190.317 38.0565 190.175 38.474 189.9 38.8C189.582 39.1191 189.15 39.2989 188.7 39.3C188.338 39.2559 187.993 39.118 187.7 38.9ZM56.8 32.8C56.5556 32.4657 56.4504 32.0498 56.5063 31.6395C56.5622 31.2292 56.7751 30.8566 57.1 30.6C57.4343 30.3556 57.8503 30.2503 58.2605 30.3063C58.6708 30.3622 59.0434 30.575 59.3 30.9C59.5444 31.2343 59.6497 31.6502 59.5937 32.0605C59.5378 32.4708 59.325 32.8434 59 33.1C58.743 33.3144 58.4314 33.4529 58.1 33.5C57.8447 33.4886 57.5951 33.4197 57.3701 33.2985C57.145 33.1773 56.9501 33.0069 56.8 32.8ZM180.5 32.9C180.175 32.6434 179.962 32.2708 179.906 31.8605C179.85 31.4502 179.956 31.0343 180.2 30.7C180.457 30.375 180.829 30.1622 181.24 30.1063C181.65 30.0503 182.066 30.1556 182.4 30.4C182.725 30.6566 182.938 31.0292 182.994 31.4395C183.05 31.8498 182.944 32.2657 182.7 32.6C182.545 32.7941 182.347 32.9494 182.121 33.0535C181.895 33.1577 181.648 33.2078 181.4 33.2C181.077 33.1933 180.763 33.0887 180.5 32.9ZM64.5 27.3C64.3914 27.1303 64.3181 26.9405 64.2844 26.7419C64.2508 26.5432 64.2575 26.3398 64.3041 26.1438C64.3508 25.9478 64.4365 25.7633 64.556 25.6011C64.6756 25.4389 64.8266 25.3025 65 25.2C65.1729 25.0746 65.3706 24.9875 65.5798 24.9446C65.7891 24.9018 66.0051 24.9041 66.2133 24.9514C66.4216 24.9987 66.6174 25.09 66.7876 25.2191C66.9577 25.3482 67.0983 25.5122 67.2 25.7C67.4001 26.0644 67.4597 26.4895 67.3676 26.8949C67.2754 27.3003 67.038 27.6579 66.7 27.9L65.8 28.1C65.5338 28.0855 65.2755 28.0047 65.0485 27.865C64.8214 27.7253 64.6329 27.5311 64.5 27.3ZM172.8 27.7C172.443 27.4737 172.19 27.1153 172.096 26.7031C172.003 26.2909 172.076 25.8584 172.3 25.5C172.526 25.1429 172.885 24.8899 173.297 24.7963C173.709 24.7026 174.142 24.7758 174.5 25C174.838 25.2421 175.075 25.5997 175.168 26.0051C175.26 26.4105 175.2 26.8356 175 27.2C174.84 27.4203 174.629 27.5989 174.385 27.7207C174.142 27.8425 173.872 27.904 173.6 27.9L172.8 27.7ZM72.7 22.6C72.5987 22.4181 72.5364 22.2171 72.517 22.0098C72.4976 21.8024 72.5216 21.5934 72.5875 21.3958C72.6533 21.1983 72.7596 21.0166 72.8995 20.8624C73.0394 20.7082 73.2098 20.5847 73.4 20.5C73.5819 20.3987 73.783 20.3364 73.9903 20.317C74.1976 20.2976 74.4067 20.3216 74.6042 20.3874C74.8017 20.4533 74.9834 20.5595 75.1376 20.6994C75.2919 20.8393 75.4153 21.0098 75.5 21.2C75.6013 21.3819 75.6637 21.5829 75.683 21.7902C75.7024 21.9976 75.6784 22.2066 75.6126 22.4042C75.5467 22.6017 75.4405 22.7834 75.3006 22.9376C75.1607 23.0918 74.9902 23.2153 74.8 23.3L74.1 23.5C73.8039 23.505 73.5129 23.4221 73.2638 23.262C73.0146 23.1018 72.8185 22.8715 72.7 22.6ZM164.7 23.1C164.51 23.0153 164.339 22.8918 164.199 22.7376C164.06 22.5834 163.953 22.4017 163.887 22.2042C163.822 22.0066 163.798 21.7976 163.817 21.5902C163.836 21.3829 163.899 21.1819 164 21C164.192 20.6351 164.518 20.3587 164.909 20.2282C165.301 20.0978 165.727 20.1235 166.1 20.3C166.465 20.4923 166.741 20.8181 166.872 21.2094C167.002 21.6007 166.977 22.0272 166.8 22.4C166.682 22.6715 166.485 22.9018 166.236 23.062C165.987 23.2221 165.696 23.305 165.4 23.3C165.276 23.3244 165.148 23.319 165.026 23.2842C164.904 23.2495 164.793 23.1863 164.7 23.1ZM81.3 18.6C81.1671 18.2147 81.1862 17.7932 81.3534 17.4215C81.5207 17.0499 81.8235 16.756 82.2 16.6C82.5853 16.4671 83.0068 16.4862 83.3785 16.6534C83.7502 16.8207 84.044 17.1235 84.2 17.5C84.333 17.8853 84.3139 18.3068 84.1466 18.6785C83.9794 19.0501 83.6766 19.344 83.3 19.5H82.7C82.4011 19.5195 82.1038 19.4426 81.8518 19.2806C81.5998 19.1186 81.4064 18.8801 81.3 18.6ZM156.1 19.4C155.723 19.244 155.421 18.9501 155.253 18.5785C155.086 18.2068 155.067 17.7853 155.2 17.4C155.264 17.1924 155.373 17.0013 155.518 16.8398C155.664 16.6783 155.842 16.5504 156.042 16.4648C156.242 16.3792 156.458 16.338 156.675 16.3441C156.892 16.3502 157.105 16.4034 157.3 16.5C157.677 16.656 157.979 16.9499 158.147 17.3215C158.314 17.6932 158.333 18.1147 158.2 18.5C158.06 18.7838 157.848 19.0258 157.584 19.2013C157.321 19.3769 157.016 19.4799 156.7 19.5H156.1V19.4ZM90.2 15.5C90.1232 15.297 90.0914 15.0798 90.1067 14.8634C90.122 14.6469 90.184 14.4364 90.2886 14.2462C90.3932 14.0561 90.5378 13.8909 90.7124 13.7621C90.887 13.6332 91.0875 13.5438 91.3 13.5C91.6973 13.4064 92.1153 13.4682 92.4685 13.6727C92.8216 13.8772 93.0834 14.2089 93.2 14.6C93.2611 14.8035 93.2809 15.0172 93.2585 15.2285C93.2361 15.4398 93.1718 15.6445 93.0694 15.8307C92.967 16.0168 92.8285 16.1808 92.6621 16.3128C92.4957 16.4449 92.3046 16.5426 92.1 16.6H91.7C91.3627 16.6122 91.0311 16.5102 90.7589 16.3106C90.4867 16.111 90.2898 15.8254 90.2 15.5ZM147.3 16.5C146.914 16.3452 146.593 16.0613 146.392 15.6967C146.192 15.332 146.124 14.9091 146.2 14.5C146.337 14.1012 146.618 13.7677 146.988 13.5644C147.358 13.3611 147.79 13.3025 148.2 13.4C148.599 13.5375 148.932 13.8183 149.136 14.1879C149.339 14.5576 149.397 14.9896 149.3 15.4C149.191 15.7334 148.975 16.0217 148.686 16.2204C148.397 16.4192 148.05 16.5174 147.7 16.5H147.3ZM99.4 13.2C99.3102 12.7891 99.3857 12.3594 99.6103 12.0039C99.8349 11.6483 100.19 11.3954 100.6 11.3C101.022 11.2389 101.452 11.3386 101.804 11.5794C102.156 11.8202 102.404 12.1845 102.5 12.6C102.558 13.0099 102.455 13.4265 102.213 13.7622C101.971 14.0979 101.608 14.3265 101.2 14.4H100.9C100.549 14.4071 100.207 14.2909 99.9327 14.0716C99.6587 13.8523 99.4702 13.5439 99.4 13.2ZM138.2 14.3C137.79 14.2046 137.435 13.9517 137.21 13.5961C136.986 13.2406 136.91 12.8109 137 12.4C137.094 12.0035 137.328 11.6542 137.658 11.4155C137.989 11.1769 138.394 11.0649 138.8 11.1C139.216 11.1959 139.58 11.4445 139.821 11.7965C140.061 12.1484 140.161 12.578 140.1 13C140.013 13.362 139.809 13.6853 139.52 13.9202C139.23 14.1551 138.872 14.2885 138.5 14.3H138.2ZM108.7 11.7C108.671 11.2913 108.801 10.8871 109.061 10.5708C109.321 10.2545 109.693 10.0502 110.1 10C110.305 9.97208 110.513 9.98684 110.712 10.0434C110.911 10.0999 111.096 10.1969 111.256 10.3284C111.416 10.4598 111.546 10.6229 111.64 10.8073C111.734 10.9917 111.788 11.1935 111.8 11.4C111.828 11.6049 111.813 11.8134 111.757 12.0123C111.7 12.2113 111.603 12.3964 111.472 12.556C111.34 12.7157 111.177 12.8464 110.993 12.94C110.808 13.0336 110.606 13.0881 110.4 13.1H110.3C109.908 13.1031 109.529 12.9622 109.234 12.7042C108.939 12.4461 108.749 12.0888 108.7 11.7ZM129 13.1C128.593 13.0498 128.221 12.8455 127.961 12.5292C127.701 12.2129 127.571 11.8087 127.6 11.4C127.613 11.1897 127.667 10.9841 127.759 10.7948C127.852 10.6055 127.981 10.4363 128.139 10.2969C128.296 10.1576 128.48 10.0508 128.68 9.98266C128.879 9.91454 129.09 9.88645 129.3 9.9C129.511 9.92468 129.715 9.99104 129.899 10.0952C130.084 10.1994 130.247 10.3393 130.377 10.5068C130.507 10.6744 130.603 10.8661 130.658 11.071C130.714 11.2758 130.728 11.4896 130.7 11.7C130.675 12.0802 130.505 12.4366 130.227 12.6966C129.948 12.9566 129.581 13.1008 129.2 13.1H129ZM118.1 11.1C118.1 10.6757 118.269 10.2687 118.569 9.96863C118.869 9.66857 119.276 9.5 119.7 9.5C120.124 9.5 120.531 9.66857 120.831 9.96863C121.131 10.2687 121.3 10.6757 121.3 11.1C121.3 11.5243 121.131 11.9313 120.831 12.2314C120.531 12.5314 120.124 12.7 119.7 12.7C119.276 12.7 118.869 12.5314 118.569 12.2314C118.269 11.9313 118.1 11.5243 118.1 11.1Z" fill="#C1C7D0"></path></g><path d="M112.8 131.5H62.4C51.5791 131.5 41.2015 135.799 33.55 143.45C25.8985 151.102 21.6 161.479 21.6 172.3C21.6 183.121 25.8985 193.498 33.55 201.15C41.2015 208.801 51.5791 213.1 62.4 213.1H64.8C70.1395 213.065 75.3444 214.775 79.6226 217.97C83.9008 221.165 87.0181 225.67 88.5 230.8C88.5 230.9 88.6 231 88.6 231.1H88.9C88.9362 231.059 88.9637 231.012 88.9809 230.96C88.9981 230.909 89.0046 230.854 89 230.8C90.5012 225.662 93.6373 221.154 97.9324 217.96C102.228 214.765 107.447 213.059 112.8 213.1C123.621 213.1 133.998 208.801 141.65 201.15C149.301 193.498 153.6 183.121 153.6 172.3C153.6 161.479 149.301 151.102 141.65 143.45C133.998 135.799 123.621 131.5 112.8 131.5Z" fill="url(#activity_0_linear)"></path><path opacity="0.1" d="M112.8 131.5H72.7999C75.1944 143.066 81.5064 153.451 90.6704 160.903C99.8344 168.354 111.289 172.415 123.1 172.4H126C130.954 172.379 135.841 173.539 140.258 175.782C144.675 178.025 148.494 181.288 151.4 185.3C152.858 181.121 153.602 176.726 153.6 172.3C153.6 161.479 149.301 151.102 141.65 143.45C133.998 135.799 123.621 131.5 112.8 131.5Z" fill="#091E42"></path><path d="M194.4 61.6992H131C117.368 61.6992 104.294 67.1146 94.6547 76.7539C85.0153 86.3933 79.6 99.4671 79.6 113.099C79.6 126.731 85.0153 139.805 94.6547 149.445C104.294 159.084 117.368 164.499 131 164.499H133.9C140.633 164.451 147.197 166.603 152.594 170.629C157.992 174.654 161.926 180.332 163.8 186.799C163.8 186.899 163.9 186.999 163.9 187.099C163.927 187.14 163.964 187.174 164.008 187.198C164.052 187.221 164.1 187.233 164.15 187.233C164.199 187.233 164.248 187.221 164.292 187.198C164.335 187.174 164.373 187.14 164.4 187.099V186.799C166.308 180.333 170.265 174.661 175.676 170.639C181.087 166.617 187.658 164.462 194.4 164.499C208.032 164.499 221.106 159.084 230.745 149.445C240.385 139.805 245.8 126.731 245.8 113.099C245.8 99.4671 240.385 86.3933 230.745 76.7539C221.106 67.1146 208.032 61.6992 194.4 61.6992Z" fill="url(#activity_1_linear)"></path><path opacity="0.2" d="M124 68.5992C124.036 66.4549 123.869 64.3119 123.5 62.1992C112.25 63.8756 101.872 69.2289 93.9849 77.4237C86.0977 85.6185 81.1451 96.1938 79.9 107.499C81.8913 106.975 83.941 106.706 86 106.699C90.9987 106.699 95.9482 105.713 100.565 103.797C105.182 101.881 109.376 99.0732 112.906 95.5339C116.435 91.9947 119.232 87.7938 121.136 83.1719C123.04 78.55 124.013 73.5979 124 68.5992Z" fill="#172B4D"></path><path d="M93.8001 21.0997H46.8001C41.8014 21.0997 36.8519 22.0859 32.235 24.0019C27.6181 25.9178 23.4245 28.7258 19.8946 32.265C16.3646 35.8042 13.5677 40.0051 11.6639 44.6271C9.7601 49.249 8.7869 54.2011 8.80006 59.1997C8.80006 69.278 12.8036 78.9434 19.93 86.0698C27.0564 93.1962 36.7218 97.1997 46.8001 97.1997H49.0001C54.0022 97.1762 58.8757 98.784 62.8818 101.78C66.8879 104.775 69.8082 108.995 71.2001 113.8V114C71.2001 114.2 71.4001 114.2 71.5001 114C71.6001 113.8 71.5001 113.8 71.6001 113.8C72.9622 108.978 75.8749 104.739 79.8876 101.739C83.9004 98.738 88.7898 97.1429 93.8001 97.1997C98.7987 97.2129 103.751 96.2397 108.373 94.3359C112.995 92.4321 117.196 89.6352 120.735 86.1052C124.274 82.5753 127.082 78.3818 128.998 73.7649C130.914 69.1479 131.9 64.1984 131.9 59.1997C131.913 54.1927 130.937 49.2324 129.027 44.6039C127.117 39.9754 124.311 35.7701 120.77 32.2296C117.23 28.689 113.024 25.8831 108.396 23.9731C103.767 22.063 98.8071 21.0865 93.8001 21.0997Z" fill="url(#activity_2_linear)"></path><path d="M152 33.7996C161.168 33.7996 168.6 26.3675 168.6 17.1996C168.6 8.03168 161.168 0.599609 152 0.599609C142.832 0.599609 135.4 8.03168 135.4 17.1996C135.4 26.3675 142.832 33.7996 152 33.7996Z" fill="#DFE1E5"></path><path d="M157.6 20.9997C158.62 20.1721 159.432 19.1167 159.971 17.9183C160.509 16.72 160.759 15.4121 160.7 14.0997C160.436 11.9677 159.393 10.0088 157.771 8.60018C156.149 7.19156 154.063 6.43281 151.915 6.47006C149.767 6.50731 147.709 7.33791 146.137 8.80192C144.565 10.2659 143.59 12.2598 143.4 14.3997C143.389 15.6518 143.652 16.8912 144.171 18.0312C144.689 19.1712 145.45 20.1843 146.4 20.9997C146.933 21.4137 147.363 21.9446 147.658 22.5515C147.953 23.1584 148.104 23.825 148.1 24.4997C148.073 25.4047 147.784 26.2825 147.27 27.0276C146.755 27.7727 146.037 28.3533 145.2 28.6997C143.184 29.4935 141.348 30.6836 139.8 32.1997C143.608 33.7774 147.679 34.6254 151.8 34.6996C156.088 34.6741 160.332 33.8254 164.3 32.1997C161.8 31.0997 160.3 29.2997 158.9 28.6997C158.056 28.3641 157.33 27.7862 156.814 27.0387C156.298 26.2913 156.015 25.4078 156 24.4997C156.011 23.8374 156.159 23.1846 156.434 22.5823C156.709 21.9799 157.106 21.4411 157.6 20.9997Z" fill="#97A0AF"></path><path d="M143.6 25.7988C143.386 25.7988 143.175 25.746 142.987 25.645C142.798 25.544 142.637 25.398 142.518 25.2199C142.4 25.0419 142.327 24.8372 142.306 24.6242C142.285 24.4112 142.318 24.1964 142.4 23.9988C142.922 22.977 143.196 21.8464 143.2 20.6988V14.4988C143.255 12.7498 143.825 11.0558 144.837 9.62864C145.85 8.2015 147.261 7.10454 148.893 6.47493C150.526 5.84532 152.308 5.711 154.017 6.08876C155.726 6.46652 157.285 7.33959 158.5 8.59882C159.26 9.37738 159.855 10.3011 160.25 11.3147C160.646 12.3284 160.833 13.4113 160.8 14.4988V20.6988C160.79 21.8608 161.101 23.0029 161.7 23.9988C161.782 24.1964 161.815 24.4112 161.794 24.6242C161.773 24.8372 161.7 25.0419 161.582 25.2199C161.463 25.398 161.302 25.544 161.113 25.645C160.925 25.746 160.714 25.7988 160.5 25.7988H143.6Z" fill="#97A0AF"></path><path d="M17.5 144.399C26.668 144.399 34.1 136.967 34.1 127.799C34.1 118.631 26.668 111.199 17.5 111.199C8.3321 111.199 0.900024 118.631 0.900024 127.799C0.900024 136.967 8.3321 144.399 17.5 144.399Z" fill="#4C9AFF"></path><path d="M22.8 131.398C23.8028 130.556 24.6024 129.498 25.1392 128.303C25.6759 127.108 25.936 125.808 25.9 124.498C25.8042 122.318 24.9019 120.252 23.3682 118.7C21.8345 117.147 19.7787 116.22 17.6 116.098C15.7947 116.028 14.0122 116.521 12.4999 117.51C10.9877 118.499 9.82079 119.934 9.16117 121.616C8.50156 123.298 8.38197 125.143 8.81901 126.896C9.25604 128.649 10.228 130.223 11.6 131.398C12.1036 131.832 12.5074 132.369 12.7836 132.973C13.0598 133.577 13.2019 134.234 13.2 134.898C13.1935 135.795 12.925 136.671 12.4276 137.417C11.9301 138.163 11.2254 138.748 10.4 139.098C8.35457 139.892 6.48563 141.082 4.90002 142.598C8.71488 144.154 12.7813 145.001 16.9 145.098C21.2217 145.083 25.4999 144.234 29.5 142.598C26.9 141.498 25.4 139.698 24 139.098C23.2845 138.791 22.6587 138.307 22.1813 137.692C21.7039 137.076 21.3905 136.35 21.2706 135.58C21.1507 134.811 21.2281 134.023 21.4956 133.292C21.7631 132.561 22.2119 131.909 22.8 131.398Z" fill="#0065FF"></path><path d="M189.6 206.1C198.768 206.1 206.2 198.668 206.2 189.5C206.2 180.332 198.768 172.9 189.6 172.9C180.432 172.9 173 180.332 173 189.5C173 198.668 180.432 206.1 189.6 206.1Z" fill="#FFE380"></path><path d="M190.1 207.402C193.994 207.32 197.835 206.471 201.4 204.902C199.944 203.415 198.211 202.226 196.3 201.402C195.493 201.036 194.81 200.445 194.331 199.7C193.852 198.955 193.598 198.088 193.6 197.202C193.604 196.548 193.738 195.901 193.996 195.3C194.254 194.699 194.629 194.156 195.1 193.702C196.022 192.869 196.757 191.85 197.257 190.712C197.757 189.575 198.01 188.344 198 187.102C198 182.102 194.2 178.202 189.5 178.402C184.8 178.602 181 182.102 181 187.102C180.995 188.334 181.241 189.555 181.723 190.689C182.204 191.824 182.911 192.849 183.8 193.702C184.304 194.135 184.707 194.672 184.984 195.277C185.26 195.881 185.402 196.538 185.4 197.202C185.402 198.088 185.148 198.955 184.669 199.7C184.19 200.445 183.507 201.036 182.7 201.402C180.789 202.226 179.056 203.415 177.6 204.902C181.165 206.471 185.006 207.32 188.9 207.402H190.1Z" fill="#FFC400"></path><path d="M197.4 197.701H181.6C181.351 197.702 181.111 197.611 180.926 197.444C180.741 197.278 180.625 197.049 180.6 196.801V186.601C180.628 184.246 181.559 181.991 183.2 180.301C184.878 178.642 187.14 177.708 189.5 177.701C191.86 177.701 194.124 178.639 195.793 180.308C197.462 181.977 198.4 184.241 198.4 186.601V196.801C198.401 196.928 198.375 197.054 198.323 197.17C198.272 197.287 198.197 197.391 198.102 197.476C198.008 197.561 197.896 197.625 197.775 197.664C197.654 197.702 197.526 197.715 197.4 197.701Z" fill="#FFC400"></path><path d="M103.8 46.9004H35.9V48.9004H103.8V46.9004Z" fill="#FF991F"></path><path d="M103.8 57.5996H35.9V59.5996H103.8V57.5996Z" fill="#FF991F"></path><path d="M103.8 68.4004H35.9V70.4004H103.8V68.4004Z" fill="#FF991F"></path><path d="M214.4 107.799C209 107.799 206.2 105.599 203.6 103.599C201 101.599 198.8 99.7988 194 99.7988C189.2 99.7988 186.9 101.599 184.4 103.599C181.9 105.599 179 107.799 173.6 107.799C168.2 107.799 165.4 105.599 162.7 103.599C160 101.599 157.9 99.7988 153.1 99.7988C148.3 99.7988 146 101.599 143.5 103.599C141 105.599 138.1 107.799 132.7 107.799C127.3 107.799 124.5 105.599 121.9 103.599C119.3 101.599 117 99.7988 112.3 99.7988V97.7988C117.7 97.7988 120.4 99.8988 123.1 101.999C125.8 104.099 127.9 105.799 132.7 105.799C137.5 105.799 139.8 103.899 142.3 101.999C144.8 100.099 147.7 97.7988 153.1 97.7988C158.5 97.7988 161.3 99.8988 164 101.999C166.7 104.099 168.8 105.799 173.6 105.799C178.4 105.799 180.7 103.899 183.2 101.999C185.7 100.099 188.5 97.7988 194 97.7988C199.5 97.7988 202.2 99.8988 204.8 101.999C207.4 104.099 209.7 105.799 214.4 105.799V107.799Z" fill="#0049B0"></path><path d="M214.4 118.5C209 118.5 206.2 116.4 203.6 114.3C201 112.2 198.8 110.5 194 110.5C189.2 110.5 186.9 112.4 184.4 114.3C181.9 116.2 179 118.5 173.6 118.5C168.2 118.5 165.4 116.4 162.7 114.3C160 112.2 157.9 110.5 153.1 110.5C148.3 110.5 146 112.4 143.5 114.3C141 116.2 138.1 118.5 132.7 118.5C127.3 118.5 124.5 116.4 121.9 114.3C119.3 112.2 117 110.5 112.3 110.5V108.5C117.7 108.5 120.4 110.7 123.1 112.7C125.8 114.7 127.9 116.5 132.7 116.5C137.5 116.5 139.8 114.7 142.3 112.7C144.8 110.7 147.7 108.5 153.1 108.5C158.5 108.5 161.3 110.7 164 112.7C166.7 114.7 168.8 116.5 173.6 116.5C178.4 116.5 180.7 114.7 183.2 112.7C185.7 110.7 188.5 108.5 194 108.5C199.5 108.5 202.2 110.7 204.8 112.7C207.4 114.7 209.7 116.5 214.4 116.5V118.5Z" fill="#0049B0"></path><path d="M214.4 129.199C209 129.199 206.2 127.099 203.6 124.999C201 122.899 198.8 121.199 194 121.199C189.2 121.199 186.9 123.099 184.4 124.999C181.9 126.899 179 129.199 173.6 129.199C168.2 129.199 165.4 127.099 162.7 124.999C160 122.899 157.9 121.199 153.1 121.199C148.3 121.199 146 123.099 143.5 124.999C141 126.899 138.1 129.199 132.7 129.199C127.3 129.199 124.5 127.099 121.9 124.999C119.3 122.899 117 121.199 112.3 121.199V119.199C117.7 119.199 120.4 121.399 123.1 123.499C125.8 125.599 127.9 127.199 132.7 127.199C137.5 127.199 139.8 125.399 142.3 123.499C144.8 121.599 147.7 119.199 153.1 119.199C158.5 119.199 161.3 121.399 164 123.499C166.7 125.599 168.8 127.199 173.6 127.199C178.4 127.199 180.7 125.399 183.2 123.499C185.7 121.599 188.5 119.199 194 119.199C199.5 119.199 202.2 121.399 204.8 123.499C207.4 125.599 209.7 127.199 214.4 127.199V129.199Z" fill="#0049B0"></path><path d="M62.6001 183.3C61.0376 183.3 59.5102 182.837 58.2111 181.969C56.9119 181.101 55.8994 179.867 55.3014 178.423C54.7035 176.98 54.5471 175.391 54.8519 173.859C55.1567 172.326 55.9091 170.919 57.0139 169.814C58.1188 168.709 59.5264 167.957 61.0589 167.652C62.5913 167.347 64.1797 167.503 65.6233 168.101C67.0668 168.699 68.3006 169.712 69.1687 171.011C70.0367 172.31 70.5001 173.838 70.5001 175.4C70.5001 177.495 69.6678 179.505 68.1862 180.986C66.7047 182.468 64.6953 183.3 62.6001 183.3ZM62.6001 169.6C61.4289 169.6 60.2844 169.949 59.3121 170.602C58.3398 171.255 57.5837 172.182 57.1403 173.266C56.6968 174.35 56.586 175.541 56.8218 176.688C57.0577 177.835 57.6296 178.886 58.4648 179.707C59.3 180.528 60.3606 181.082 61.5116 181.299C62.6626 181.515 63.8519 181.384 64.9281 180.922C66.0042 180.46 66.9186 179.688 67.5547 178.705C68.1908 177.721 68.5199 176.571 68.5001 175.4C68.4738 173.853 67.8407 172.377 66.737 171.293C65.6334 170.208 64.1477 169.6 62.6001 169.6Z" fill="#7A869A"></path><path d="M87.6 183.299C86.4947 183.424 85.3755 183.314 84.3157 182.976C83.2558 182.639 82.2791 182.081 81.4496 181.34C80.62 180.599 79.9563 179.691 79.5019 178.676C79.0475 177.661 78.8126 176.561 78.8126 175.449C78.8126 174.337 79.0475 173.237 79.5019 172.221C79.9563 171.206 80.62 170.298 81.4496 169.557C82.2791 168.816 83.2558 168.259 84.3157 167.921C85.3755 167.584 86.4947 167.474 87.6 167.599C88.7053 167.474 89.8245 167.584 90.8844 167.921C91.9443 168.259 92.921 168.816 93.7505 169.557C94.58 170.298 95.2437 171.206 95.6981 172.221C96.1525 173.237 96.3874 174.337 96.3874 175.449C96.3874 176.561 96.1525 177.661 95.6981 178.676C95.2437 179.691 94.58 180.599 93.7505 181.34C92.921 182.081 91.9443 182.639 90.8844 182.976C89.8245 183.314 88.7053 183.424 87.6 183.299ZM87.6 169.599C86.4289 169.599 85.2843 169.948 84.312 170.601C83.3397 171.253 82.5837 172.181 82.1402 173.265C81.6968 174.349 81.5859 175.54 81.8218 176.687C82.0577 177.834 82.6296 178.885 83.4648 179.706C84.2999 180.527 85.3605 181.081 86.5115 181.297C87.6625 181.514 88.8518 181.382 89.928 180.92C91.0042 180.459 91.9186 179.687 92.5547 178.703C93.1908 177.72 93.5199 176.57 93.5 175.399C93.4738 173.851 92.8406 172.376 91.737 171.291C90.6334 170.206 89.1476 169.599 87.6 169.599Z" fill="#7A869A"></path><path d="M112.6 183.299C111.495 183.424 110.376 183.314 109.316 182.976C108.256 182.639 107.279 182.081 106.45 181.34C105.62 180.599 104.956 179.691 104.502 178.676C104.048 177.661 103.813 176.561 103.813 175.449C103.813 174.337 104.048 173.237 104.502 172.221C104.956 171.206 105.62 170.298 106.45 169.557C107.279 168.816 108.256 168.259 109.316 167.921C110.376 167.584 111.495 167.474 112.6 167.599C113.705 167.474 114.825 167.584 115.884 167.921C116.944 168.259 117.921 168.816 118.75 169.557C119.58 170.298 120.244 171.206 120.698 172.221C121.153 173.237 121.387 174.337 121.387 175.449C121.387 176.561 121.153 177.661 120.698 178.676C120.244 179.691 119.58 180.599 118.75 181.34C117.921 182.081 116.944 182.639 115.884 182.976C114.825 183.314 113.705 183.424 112.6 183.299ZM112.6 169.599C111.429 169.599 110.284 169.948 109.312 170.601C108.34 171.253 107.584 172.181 107.14 173.265C106.697 174.349 106.586 175.54 106.822 176.687C107.058 177.834 107.63 178.885 108.465 179.706C109.3 180.527 110.361 181.081 111.512 181.297C112.663 181.514 113.852 181.382 114.928 180.92C116.004 180.459 116.919 179.687 117.555 178.703C118.191 177.72 118.52 176.57 118.5 175.399C118.474 173.851 117.841 172.376 116.737 171.291C115.633 170.206 114.148 169.599 112.6 169.599Z" fill="#7A869A"></path></g><defs><linearGradient id="activity_0_linear" x1="46.18" y1="213.75" x2="129.04" y2="130.89" gradientUnits="userSpaceOnUse"><stop stop-color="#8993A4"></stop><stop offset="0.17" stop-color="#939DAC"></stop><stop offset="0.46" stop-color="#B0B6C1"></stop><stop offset="0.83" stop-color="#DDDFE3"></stop><stop offset="0.85" stop-color="#DFE1E5"></stop></linearGradient><linearGradient id="activity_1_linear" x1="110.47" y1="165.289" x2="214.86" y2="60.8992" gradientUnits="userSpaceOnUse"><stop offset="0.16" stop-color="#0052CC"></stop><stop offset="0.25" stop-color="#0059E0"></stop><stop offset="0.36" stop-color="#0060F1"></stop><stop offset="0.48" stop-color="#0064FC"></stop><stop offset="0.62" stop-color="#0065FF"></stop><stop offset="0.67" stop-color="#0568FF"></stop><stop offset="0.72" stop-color="#1572FF"></stop><stop offset="0.79" stop-color="#2E82FF"></stop><stop offset="0.86" stop-color="#5198FF"></stop><stop offset="0.93" stop-color="#7EB4FF"></stop><stop offset="1" stop-color="#B2D4FF"></stop></linearGradient><linearGradient id="activity_2_linear" x1="31.6601" y1="97.8397" x2="109.03" y2="20.4697" gradientUnits="userSpaceOnUse"><stop offset="0.16" stop-color="#FF991F"></stop><stop offset="0.21" stop-color="#FF9E1B"></stop><stop offset="0.49" stop-color="#FFBA07"></stop><stop offset="0.66" stop-color="#FFC400"></stop><stop offset="0.81" stop-color="#FFD340"></stop><stop offset="0.94" stop-color="#FFDF6E"></stop><stop offset="1" stop-color="#FFE380"></stop></linearGradient><clipPath id="activity_0_clip"><path d="M0.900024 0.599609H245.8V231.2H0.900024V0.599609Z" fill="white"></path></clipPath></defs></svg>