<svg xmlns="http://www.w3.org/2000/svg" width="24" height="24" fill="none" viewBox="-4 -4 24 24" role="presentation" class="css-2l1v34"><path fill="currentcolor" d="M2.25 8a.75.75 0 1 1-1.5 0 .75.75 0 0 1 1.5 0m6.5 0a.75.75 0 1 1-1.5 0 .75.75 0 0 1 1.5 0m6.5 0a.75.75 0 1 1-1.5 0 .75.75 0 0 1 1.5 0"></path><path stroke="currentcolor" stroke-width="1.5" d="M2.25 8a.75.75 0 1 1-1.5 0 .75.75 0 0 1 1.5 0Zm6.5 0a.75.75 0 1 1-1.5 0 .75.75 0 0 1 1.5 0Zm6.5 0a.75.75 0 1 1-1.5 0 .75.75 0 0 1 1.5 0Z"></path></svg>